<svg width="24" height="24" viewBox="0 0 24 24" fill="none" xmlns="http://www.w3.org/2000/svg">
  <path d="M4 12H20V20C20 20.5523 19.5523 21 19 21H5C4.44772 21 4 20.5523 4 20V12Z" stroke="currentColor" stroke-width="1.5" stroke-linecap="round" stroke-linejoin="round"/>
  <path d="M4 8C4 7.44772 4.44772 7 5 7H19C19.5523 7 20 7.44772 20 8V12H4V8Z" stroke="currentColor" stroke-width="1.5" stroke-linecap="round" stroke-linejoin="round"/>
  <path d="M10 7V4C10 3.44772 10.4477 3 11 3H13C13.5523 3 14 3.44772 14 4V7" stroke="currentColor" stroke-width="1.5" stroke-linecap="round" stroke-linejoin="round"/>
  <path d="M6 14H12" stroke="currentColor" stroke-width="1.5" stroke-linecap="round" stroke-linejoin="round"/>
  <path d="M6 17H10" stroke="currentColor" stroke-width="1.5" stroke-linecap="round" stroke-linejoin="round"/>
</svg> 
